<?xml version="1.0" standalone="no"?>
<!DOCTYPE svg PUBLIC "-//W3C//DTD SVG 20010904//EN"
 "http://www.w3.org/TR/2001/REC-SVG-20010904/DTD/svg10.dtd">
<svg version="1.0" xmlns="http://www.w3.org/2000/svg"
 width="1500.000000pt" height="1500.000000pt" viewBox="0 0 1500.000000 1500.000000"
 preserveAspectRatio="xMidYMid meet">

<g transform="translate(0.000000,1500.000000) scale(0.100000,-0.100000)"
fill="#000000" stroke="none">
<path d="M8010 11869 c-63 -4 -131 -13 -150 -19 -49 -14 -156 -30 -210 -30
-24 0 -62 -6 -85 -14 -165 -58 -218 -69 -346 -68 -96 0 -139 5 -185 20 -32 11
-85 22 -116 26 -32 3 -77 12 -100 20 -24 8 -103 17 -175 20 -74 4 -151 13
-174 21 -50 18 -438 22 -470 5 -10 -6 -58 -15 -107 -21 -174 -21 -313 -80
-404 -172 -77 -77 -108 -126 -193 -301 -89 -183 -143 -329 -165 -446 -10 -52
-23 -113 -29 -135 -16 -62 -14 -321 4 -379 19 -64 19 -102 -1 -110 -9 -3 -34
-6 -56 -6 -50 0 -200 -50 -286 -96 -127 -68 -238 -186 -291 -309 -34 -81 -71
-248 -72 -326 -2 -106 41 -320 98 -494 24 -73 44 -113 110 -223 28 -45 29 -89
4 -150 -43 -111 -81 -334 -81 -483 0 -78 34 -220 68 -283 27 -49 90 -112 133
-132 130 -62 130 -62 394 -72 207 -8 258 -12 297 -28 63 -26 105 -66 117 -111
5 -21 17 -66 26 -100 8 -34 20 -128 26 -210 5 -81 14 -165 20 -186 6 -22 9
-153 9 -317 -1 -153 1 -284 5 -290 11 -18 48 -11 135 29 96 44 193 78 260 91
25 4 94 24 153 44 59 20 119 36 132 36 14 0 74 11 133 26 59 14 136 32 172 40
36 9 117 19 180 23 63 5 144 15 180 24 118 29 1022 60 1100 38 19 -5 161 -12
315 -15 304 -7 354 -11 430 -31 28 -7 114 -15 191 -19 78 -3 161 -12 185 -20
24 -7 77 -17 117 -20 41 -3 86 -12 100 -20 15 -7 74 -16 132 -19 65 -4 127
-14 162 -27 32 -11 70 -20 85 -20 16 0 66 -9 113 -20 47 -10 108 -24 135 -29
28 -5 79 -18 114 -27 73 -20 95 -13 97 32 1 16 7 49 14 74 24 85 51 215 64
305 8 50 19 108 25 130 11 42 30 252 36 391 5 124 17 154 72 194 27 19 57 40
68 45 35 18 109 72 134 99 14 14 32 26 42 26 17 0 199 183 199 201 0 5 18 32
40 60 22 28 40 59 40 69 0 10 7 23 15 30 8 6 17 22 20 33 4 12 15 45 25 72 10
28 23 71 29 98 27 117 0 328 -58 452 -17 37 -31 72 -31 79 0 9 -52 83 -103
147 -61 76 -72 122 -42 179 8 16 31 80 50 142 20 62 42 133 50 158 8 25 15 57
15 71 0 14 9 64 21 110 17 67 20 103 16 174 -9 160 -80 371 -152 457 -14 16
-25 33 -25 37 0 12 -93 101 -106 101 -6 0 -17 7 -24 15 -26 32 -161 96 -273
130 -116 35 -118 35 -307 35 -167 0 -195 -2 -241 -20 -31 -13 -69 -20 -93 -18
l-41 3 -7 85 c-13 173 -84 390 -181 553 -66 110 -228 280 -314 329 -28 16 -57
36 -63 43 -7 8 -18 15 -25 15 -7 0 -23 9 -37 19 -13 11 -42 24 -63 30 -22 6
-49 17 -60 24 -22 16 -121 44 -270 77 -159 36 -432 47 -695 29z m515 -78 c148
-15 368 -74 487 -131 178 -86 254 -143 373 -276 142 -160 236 -380 276 -646
32 -219 24 -517 -22 -801 -12 -76 -4 -97 37 -97 18 0 25 7 29 28 4 15 11 47
17 72 15 63 27 214 34 432 5 139 10 190 20 199 7 6 46 19 86 30 93 24 379 27
473 4 244 -57 435 -206 523 -405 49 -113 56 -149 55 -300 -1 -126 -5 -160 -31
-265 -67 -266 -129 -416 -416 -1005 -15 -30 -35 -75 -45 -100 -10 -25 -34 -83
-53 -130 -50 -121 -54 -144 -28 -170 24 -24 55 -14 65 22 25 84 134 331 256
578 40 80 77 163 84 185 11 36 15 40 46 40 28 0 36 -5 48 -30 8 -16 28 -48 45
-70 57 -72 111 -213 126 -329 37 -274 -109 -529 -440 -772 -36 -26 -81 -59
-100 -74 -62 -48 -72 -47 -134 14 -55 53 -196 146 -246 161 -14 4 -45 18 -70
31 -25 13 -52 24 -60 24 -9 0 -53 16 -99 35 -45 19 -89 35 -96 35 -7 0 -43 9
-79 20 -61 19 -66 23 -66 50 0 15 10 41 23 57 13 15 72 100 132 188 59 88 126
183 147 210 80 101 209 234 263 270 30 20 63 47 72 61 14 23 14 26 -2 44 -31
35 -67 25 -147 -38 -85 -68 -138 -126 -256 -277 -87 -112 -269 -375 -312 -453
-15 -27 -33 -45 -49 -49 -15 -4 -69 5 -132 21 -59 16 -137 32 -175 36 -82 10
-180 29 -211 41 -20 8 -23 15 -23 71 0 34 4 87 10 117 5 31 14 110 20 176 13
163 36 371 51 478 12 84 11 89 -8 109 -17 16 -24 18 -41 9 -24 -13 -25 -16
-47 -236 -9 -88 -25 -234 -35 -325 -11 -91 -24 -208 -30 -260 -7 -70 -14 -98
-27 -108 -16 -11 -87 -10 -179 4 -36 5 -32 -4 -93 189 -45 139 -115 340 -137
390 -7 17 -25 62 -40 100 -141 366 -327 646 -473 711 -68 31 -87 30 -108 -2
-17 -26 -17 -27 14 -53 17 -14 55 -41 85 -60 126 -79 262 -293 403 -631 90
-216 208 -567 203 -603 -4 -26 15 -26 -333 -7 -137 7 -314 10 -393 7 l-143 -5
-92 66 c-185 131 -362 339 -456 535 -38 78 -63 97 -92 71 -27 -24 -24 -49 14
-124 82 -162 230 -359 351 -465 69 -60 83 -91 44 -99 -13 -3 -70 -8 -128 -11
-200 -13 -305 -23 -421 -41 l-116 -18 -122 27 c-182 41 -330 120 -455 243 -72
71 -91 76 -116 31 -13 -24 -13 -30 0 -54 35 -62 253 -222 325 -239 41 -9 55
-22 55 -50 0 -30 -27 -44 -88 -44 -27 0 -94 -14 -148 -31 -55 -16 -126 -36
-159 -44 -97 -22 -187 -58 -202 -81 -12 -18 -11 -24 8 -47 25 -32 40 -33 94
-7 22 11 63 24 90 29 28 6 83 21 124 35 41 15 87 26 102 26 15 0 55 9 90 19
71 21 216 53 324 71 39 6 120 20 180 31 61 11 162 24 225 29 63 6 187 17 275
25 228 22 665 30 870 16 406 -27 668 -56 840 -92 49 -10 103 -19 120 -19 16 0
84 -14 150 -31 66 -18 143 -36 170 -41 28 -6 82 -21 120 -33 39 -13 98 -30
132 -39 35 -8 85 -27 113 -41 27 -14 55 -25 63 -25 19 0 214 -97 262 -130 53
-37 100 -81 113 -105 20 -40 23 -150 8 -305 -13 -132 -37 -316 -52 -397 -6
-33 -39 -29 -104 12 -66 41 -313 165 -388 194 -29 12 -74 32 -100 46 -26 14
-54 25 -62 25 -8 0 -43 13 -78 30 -34 16 -84 36 -110 44 -26 9 -112 38 -192
66 -80 28 -170 57 -200 64 -30 7 -98 27 -150 43 -102 32 -244 69 -325 85 -27
6 -104 24 -170 40 -66 17 -160 36 -210 44 -49 7 -145 24 -212 38 -67 14 -167
30 -221 35 -54 6 -152 19 -218 30 -66 11 -165 22 -219 26 -55 3 -169 13 -252
22 -123 13 -155 13 -168 3 -22 -18 -19 -67 4 -80 18 -9 133 -20 385 -35 93 -6
211 -21 416 -55 63 -10 142 -21 176 -24 33 -3 85 -12 115 -20 30 -7 100 -21
155 -30 116 -19 362 -75 520 -117 60 -17 137 -36 170 -44 59 -13 79 -19 249
-76 50 -17 117 -38 150 -48 33 -10 86 -30 117 -44 32 -15 70 -29 85 -33 32 -8
192 -73 268 -109 28 -13 95 -44 150 -70 144 -68 236 -115 270 -139 16 -12 47
-29 68 -38 20 -9 40 -24 44 -33 5 -15 -2 -61 -26 -160 -8 -36 -43 -44 -99 -22
-21 8 -86 24 -147 36 -60 12 -155 31 -210 43 -55 11 -145 27 -200 34 -55 7
-179 27 -275 43 -96 17 -200 31 -230 31 -30 0 -99 7 -153 15 -276 41 -558 57
-1047 57 -410 0 -503 -3 -681 -21 -113 -12 -230 -26 -260 -31 -30 -6 -99 -15
-154 -20 -55 -5 -152 -21 -215 -36 -63 -15 -144 -30 -180 -34 -36 -4 -91 -17
-123 -29 -32 -11 -86 -25 -120 -32 -34 -6 -96 -23 -137 -39 -41 -16 -91 -32
-110 -35 -19 -4 -57 -18 -83 -32 -27 -13 -58 -23 -70 -21 -21 3 -22 9 -25 104
-1 56 2 113 7 127 8 20 36 39 123 81 181 87 246 116 256 116 5 0 36 12 68 27
75 34 196 78 304 110 47 13 108 33 135 43 28 10 66 22 85 25 19 3 98 21 175
39 77 19 181 38 230 44 50 6 122 17 160 23 153 25 510 8 668 -32 45 -12 73 -5
88 22 8 16 5 25 -20 49 -26 26 -37 30 -85 30 -31 0 -98 7 -148 16 -107 18
-469 15 -618 -5 -217 -30 -380 -63 -525 -106 -60 -18 -132 -38 -160 -45 -27
-6 -75 -22 -105 -35 -30 -13 -75 -30 -100 -38 -132 -44 -185 -67 -397 -168
-56 -27 -109 -49 -117 -49 -18 0 -40 36 -33 54 9 22 -13 290 -33 411 -36 214
-65 287 -131 320 -51 27 -158 45 -265 45 -55 0 -161 5 -235 10 -124 10 -139
13 -207 47 -89 44 -152 110 -183 191 -18 49 -21 77 -21 205 1 100 6 164 15
195 8 26 20 79 27 119 6 39 17 79 24 89 19 26 59 11 90 -35 44 -63 174 -169
291 -236 118 -69 233 -112 378 -142 29 -6 67 18 67 43 0 21 -40 52 -74 59
-101 20 -266 89 -351 145 -22 15 -60 40 -84 56 -69 45 -221 201 -279 288 -107
156 -169 308 -212 521 -68 328 14 575 245 740 35 25 66 45 69 45 4 0 48 18 99
40 101 43 197 61 221 41 8 -7 17 -24 21 -38 24 -98 129 -278 224 -386 55 -62
176 -167 194 -167 17 0 47 32 47 50 0 10 -41 57 -91 106 -111 109 -173 186
-229 284 -131 234 -170 515 -108 800 32 149 112 367 180 486 13 23 43 77 67
120 93 165 211 243 437 291 118 25 148 27 349 27 181 0 258 -5 430 -27 116
-15 242 -34 280 -42 39 -9 104 -22 145 -31 41 -8 99 -19 128 -26 38 -8 62 -8
90 0 130 37 278 74 333 83 35 5 111 19 169 30 58 11 146 24 195 28 127 11 433
12 540 2z"/>
<path d="M10214 6403 l-9 -38 -337 -3 -338 -2 0 -23 c0 -12 7 -31 15 -41 22
-29 22 -1718 0 -1756 -8 -14 -14 -33 -15 -42 0 -17 22 -18 334 -18 335 0 335
0 350 -22 9 -12 16 -33 16 -45 0 -13 5 -23 10 -23 6 0 10 87 10 240 0 153 -4
240 -10 240 -5 0 -10 -10 -10 -23 0 -12 -7 -33 -16 -45 -15 -22 -18 -22 -255
-22 l-239 0 0 260 0 260 160 0 159 0 15 -47 c14 -45 15 -33 14 197 0 180 -2
236 -10 210 -17 -60 -17 -60 -184 -60 l-154 0 0 225 0 225 234 0 c254 0 247 2
264 -60 8 -26 10 28 11 208 1 133 0 242 -2 242 -2 0 -8 -17 -13 -37z"/>
<path d="M4500 6381 c-171 -52 -293 -291 -341 -669 -16 -125 -16 -470 0 -592
46 -346 149 -572 295 -647 41 -21 65 -27 121 -27 112 0 167 40 289 206 64 88
71 94 84 72 6 -11 11 -13 16 -5 6 9 -72 336 -91 381 -4 8 -9 -10 -13 -41 -9
-75 -41 -137 -104 -206 -133 -146 -271 -118 -362 72 -133 277 -119 809 28
1038 41 65 107 107 165 107 62 0 106 -22 161 -79 67 -70 103 -139 110 -213 3
-35 8 -54 12 -47 15 26 102 380 96 386 -3 4 -12 -2 -20 -12 -12 -16 -20 -8
-99 96 -86 117 -136 162 -198 179 -39 12 -113 12 -149 1z"/>
<path d="M5826 6376 c-140 -52 -240 -220 -295 -498 -31 -156 -41 -265 -41
-465 0 -347 63 -646 171 -815 129 -201 355 -207 483 -13 133 200 204 603 176
999 -29 415 -141 703 -305 781 -51 24 -139 29 -189 11z m166 -339 c173 -131
233 -690 112 -1059 -51 -156 -137 -237 -229 -214 -36 9 -103 72 -127 120 -27
53 -55 136 -74 216 -24 102 -30 442 -11 566 52 324 188 478 329 371z"/>
<path d="M7198 6380 c-121 -36 -223 -182 -282 -400 -52 -192 -60 -274 -60
-565 1 -294 14 -410 70 -595 95 -313 271 -444 464 -345 81 41 145 133 199 282
151 417 126 1097 -52 1438 -78 149 -214 223 -339 185z m143 -333 c70 -47 125
-157 162 -327 31 -142 30 -461 -2 -610 -54 -250 -150 -375 -268 -345 -16 3
-49 28 -74 54 -52 54 -95 153 -124 281 -23 103 -31 400 -15 527 28 223 106
398 194 433 39 16 92 11 127 -13z"/>
<path d="M8230 6338 c1 -13 7 -34 15 -48 22 -38 22 -1717 0 -1746 -8 -10 -15
-29 -15 -41 0 -22 2 -23 110 -23 108 0 110 1 110 23 0 12 -7 31 -15 41 -12 16
-15 69 -15 302 l0 283 54 111 c30 60 57 107 59 103 14 -25 231 -725 235 -759
2 -25 0 -44 -7 -48 -6 -4 -11 -18 -11 -32 l0 -24 140 0 c130 0 140 1 140 19 0
10 -7 25 -17 32 -28 24 -55 98 -213 587 l-152 473 20 47 c46 108 310 644 326
660 9 10 16 28 16 40 0 22 -3 22 -150 22 -145 0 -150 -1 -150 -21 0 -11 7 -28
16 -37 31 -30 10 -89 -150 -422 l-156 -325 0 361 c0 301 2 363 15 380 8 10 15
29 15 42 0 21 -2 22 -110 22 -108 0 -110 -1 -110 -22z"/>
<path d="M10790 6337 c0 -14 7 -38 15 -53 22 -44 22 -1694 0 -1738 -8 -15 -15
-37 -15 -47 0 -17 9 -19 110 -19 98 0 110 2 110 18 0 9 -7 26 -15 36 -13 17
-15 77 -15 368 l0 349 97 -3 98 -3 82 -305 c97 -362 101 -384 79 -409 -9 -10
-16 -25 -16 -34 0 -15 15 -17 130 -17 121 0 130 1 130 19 0 10 -7 24 -15 31
-8 6 -23 35 -34 64 -19 52 -181 635 -181 653 0 5 19 23 43 39 50 36 99 121
122 215 10 38 19 131 22 231 12 340 -43 540 -165 600 -45 22 -59 23 -314 26
l-268 4 0 -25z m519 -300 c38 -19 60 -66 73 -156 14 -93 3 -202 -27 -265 -27
-57 -58 -66 -230 -66 l-145 0 0 250 0 250 153 0 c101 0 160 -4 176 -13z"/>
</g>
</svg>
